<?xml version="1.0" encoding="UTF-8"?>
<svg width="23px" height="15px" viewBox="0 0 23 15" version="1.1" xmlns="http://www.w3.org/2000/svg" xmlns:xlink="http://www.w3.org/1999/xlink">
    <!-- Generator: Sketch 48.2 (47327) - http://www.bohemiancoding.com/sketch -->
    <title>behance - FontAwesome</title>
    <desc>Created with Sketch.</desc>
    <defs></defs>
    <g id="Desktop-HD" stroke="none" stroke-width="1" fill="none" fill-rule="evenodd" transform="translate(-152.000000, -489.000000)">
        <g id="Group-3" transform="translate(72.000000, 198.000000)" fill="#F87C54">
            <g id="Group" transform="translate(46.000000, 289.000000)">
                <path d="M48.9218928,3.64060907 L54.6250246,3.64060907 L54.6250246,5.0245393 L48.9218928,5.0245393 L48.9218928,3.64060907 Z M51.8125212,8.39507903 C50.4732339,8.39507903 49.5803757,9.2321336 49.4910899,10.5714209 L54.0446668,10.5714209 C53.9218987,9.22097287 53.2187729,8.39507903 51.8125212,8.39507903 Z M51.9910929,14.9241047 C52.8393082,14.9241047 53.9330595,14.4665148 54.2009169,13.5959781 L56.6674377,13.5959781 C55.9085083,15.9285702 54.3348457,17.0223215 51.9018071,17.0223215 C48.6875175,17.0223215 46.6897473,14.8459796 46.6897473,11.6763329 C46.6897473,8.61829358 48.7991248,6.28570151 51.9018071,6.28570151 C55.0937751,6.28570151 56.8571701,8.79686522 56.8571701,11.8102617 C56.8571701,11.9888333 56.8460094,12.167405 56.8348486,12.3348159 L49.4910899,12.3348159 C49.4910899,13.9642821 50.3504659,14.9241047 51.9910929,14.9241047 Z M37.0915215,14.3660683 L40.3950969,14.3660683 C41.6562591,14.3660683 42.6830461,13.9196392 42.6830461,12.5022268 C42.6830461,11.0624929 41.82367,10.4932958 40.4620613,10.4932958 L37.0915215,10.4932958 L37.0915215,14.3660683 Z M37.0915215,8.37275757 L40.227686,8.37275757 C41.332598,8.37275757 42.113849,7.89284629 42.113849,6.69864843 C42.113849,5.40400403 41.1093835,5.09150366 39.9933107,5.09150366 L37.0915215,5.09150366 L37.0915215,8.37275757 Z M34,2.69194723 L40.6294722,2.69194723 C43.0401893,2.69194723 45.1272454,3.37275161 45.1272454,6.17409424 C45.1272454,7.59150664 44.4687625,8.5066863 43.2076003,9.10936559 C44.937513,9.60043761 45.7745676,10.9062427 45.7745676,12.6696377 C45.7745676,15.526784 43.3750112,16.754464 40.8192046,16.754464 L34,16.754464 L34,2.69194723 Z" id="behance---FontAwesome"></path>
            </g>
        </g>
    </g>
</svg>