<?xml version="1.0" encoding="UTF-8"?>
<svg width="18px" height="17px" viewBox="0 0 18 17" version="1.1" xmlns="http://www.w3.org/2000/svg" xmlns:xlink="http://www.w3.org/1999/xlink">
    <!-- Generator: Sketch 48.2 (47327) - http://www.bohemiancoding.com/sketch -->
    <title>github - FontAwesome</title>
    <desc>Created with Sketch.</desc>
    <defs></defs>
    <g id="Desktop-HD" stroke="none" stroke-width="1" fill="none" fill-rule="evenodd" transform="translate(-321.000000, -484.000000)">
        <path d="M329.571439,484.285696 C334.303587,484.285696 338.142878,488.124986 338.142878,492.857134 C338.142878,496.640621 335.687518,499.854911 332.283496,500.993305 C331.848227,501.07143 331.691977,500.803572 331.691977,500.580358 C331.691977,500.30134 331.703138,499.374999 331.703138,498.225444 C331.703138,497.421872 331.43528,496.908478 331.12278,496.640621 C333.031264,496.428567 335.040195,495.70312 335.040195,492.410705 C335.040195,491.473204 334.705373,490.714275 334.158498,490.111595 C334.247784,489.888381 334.537963,489.017844 334.069212,487.834807 C333.354925,487.611592 331.714298,488.716504 331.714298,488.716504 C331.033494,488.526772 330.296886,488.426325 329.571439,488.426325 C328.845991,488.426325 328.109383,488.526772 327.428579,488.716504 C327.428579,488.716504 325.787952,487.611592 325.073666,487.834807 C324.604915,489.017844 324.895094,489.888381 324.98438,490.111595 C324.437504,490.714275 324.102682,491.473204 324.102682,492.410705 C324.102682,495.691959 326.100453,496.428567 328.008937,496.640621 C327.763401,496.863836 327.540186,497.2433 327.462061,497.790176 C326.970989,498.01339 325.720988,498.392855 324.973219,497.075889 C324.504468,496.261156 323.656253,496.194192 323.656253,496.194192 C322.819199,496.183031 323.60045,496.718746 323.60045,496.718746 C324.158486,496.975443 324.549111,497.968748 324.549111,497.968748 C325.051344,499.497767 327.43974,498.984374 327.43974,498.984374 C327.43974,499.69866 327.450901,500.368304 327.450901,500.580358 C327.450901,500.803572 327.29465,501.07143 326.859382,500.993305 C323.45536,499.854911 321,496.640621 321,492.857134 C321,488.124986 324.83929,484.285696 329.571439,484.285696 Z M324.247772,496.595978 C324.22545,496.640621 324.158486,496.651782 324.102682,496.6183 C324.035718,496.584817 324.002236,496.529014 324.024557,496.484371 C324.046879,496.450889 324.102682,496.439728 324.169647,496.462049 C324.236611,496.495532 324.270093,496.551335 324.247772,496.595978 Z M324.593754,496.975443 C324.549111,497.020086 324.470986,496.997764 324.415183,496.941961 C324.359379,496.874996 324.348218,496.796871 324.392861,496.763389 C324.437504,496.718746 324.515629,496.741068 324.571433,496.796871 C324.627236,496.863836 324.638397,496.941961 324.593754,496.975443 Z M324.928576,497.477676 C324.883933,497.511158 324.794647,497.477676 324.738844,497.39955 C324.68304,497.321425 324.68304,497.23214 324.738844,497.198657 C324.794647,497.154014 324.883933,497.187497 324.928576,497.265622 C324.98438,497.343747 324.98438,497.433033 324.928576,497.477676 Z M325.397327,497.946426 C325.352684,498.00223 325.252237,497.991069 325.174112,497.912944 C325.095987,497.84598 325.073666,497.745533 325.129469,497.70089 C325.174112,497.645086 325.274559,497.656247 325.352684,497.734372 C325.419648,497.801337 325.44197,497.901783 325.397327,497.946426 Z M326.033488,498.225444 C326.011167,498.292409 325.91072,498.325891 325.821434,498.292409 C325.720988,498.270087 325.654023,498.191962 325.676345,498.124998 C325.698666,498.058033 325.799113,498.024551 325.888399,498.046873 C325.988845,498.080355 326.05581,498.15848 326.033488,498.225444 Z M326.736614,498.281248 C326.736614,498.348212 326.658489,498.404016 326.558042,498.404016 C326.446435,498.415177 326.36831,498.359373 326.36831,498.281248 C326.36831,498.214284 326.446435,498.15848 326.546882,498.15848 C326.647328,498.147319 326.736614,498.203123 326.736614,498.281248 Z M327.383936,498.169641 C327.395097,498.236605 327.328133,498.303569 327.227686,498.325891 C327.127239,498.348212 327.037954,498.303569 327.026793,498.236605 C327.015632,498.15848 327.082597,498.091516 327.183043,498.069194 C327.28349,498.058033 327.372775,498.102676 327.383936,498.169641 Z" id="github---FontAwesome" fill="#F87C54"></path>
    </g>
</svg>