<?xml version="1.0" encoding="UTF-8"?>
<svg width="18px" height="17px" viewBox="0 0 18 17" version="1.1" xmlns="http://www.w3.org/2000/svg" xmlns:xlink="http://www.w3.org/1999/xlink">
    <!-- Generator: Sketch 48.2 (47327) - http://www.bohemiancoding.com/sketch -->
    <title>linkedin - FontAwesome</title>
    <desc>Created with Sketch.</desc>
    <defs></defs>
    <g id="Desktop-HD" stroke="none" stroke-width="1" fill="none" fill-rule="evenodd" transform="translate(-191.000000, -488.000000)">
        <g id="Group-3" transform="translate(72.000000, 198.000000)" fill="#F87C54">
            <g id="Group" transform="translate(46.000000, 289.000000)">
                <path d="M76.8950939,6.83257717 L76.8950939,17.8928582 L73.2120538,17.8928582 L73.2120538,6.83257717 L76.8950939,6.83257717 Z M77.1294692,3.41739452 C77.1406299,4.47766364 76.3370575,5.32587894 75.0535739,5.32587894 L75.0312524,5.32587894 C73.7924117,5.32587894 73,4.47766364 73,3.41739452 C73,2.33480395 73.8258938,1.5089101 75.0758953,1.5089101 C76.3370575,1.5089101 77.1183085,2.33480395 77.1294692,3.41739452 Z M82.5982257,8.40462334 C83.0827352,7.64721633 83.9567698,6.57588043 85.9129618,6.57588043 C88.3348397,6.57588043 90.1428776,8.16070375 90.1428776,11.5535649 L90.1428776,17.8928582 L86.4709982,17.8928582 L86.4709982,11.9776726 C86.4709982,10.4932958 85.9352833,9.4776696 84.6071567,9.4776696 C83.5915305,9.4776696 82.9888512,10.158474 82.7209937,10.8169569 C82.6317079,11.0624929 82.5982257,11.386154 82.5982257,11.7209758 L82.5982257,17.8928582 L78.9263464,17.8928582 C78.9709893,7.87052483 78.9263464,6.83257717 78.9263464,6.83257717 L82.5982257,6.83257717 L82.5982257,8.40462334 Z" id="linkedin---FontAwesome"></path>
            </g>
        </g>
    </g>
</svg>