<?xml version="1.0" encoding="UTF-8"?>
<svg width="18px" height="15px" viewBox="0 0 18 15" version="1.1" xmlns="http://www.w3.org/2000/svg" xmlns:xlink="http://www.w3.org/1999/xlink">
    <!-- Generator: Sketch 48.2 (47327) - http://www.bohemiancoding.com/sketch -->
    <title>twitter - FontAwesome</title>
    <desc>Created with Sketch.</desc>
    <defs></defs>
    <g id="Desktop-HD" stroke="none" stroke-width="1" fill="none" fill-rule="evenodd" transform="translate(-289.000000, -489.000000)">
        <g id="Group-3" transform="translate(72.000000, 198.000000)" fill="#F87C54">
            <g id="Group" transform="translate(46.000000, 289.000000)">
                <path d="M189.080379,4.41069928 C188.589307,5.12498584 187.975467,5.76114732 187.272341,6.27454079 C187.283502,6.43079097 187.283502,6.58704116 187.283502,6.74329134 C187.283502,11.508922 183.656265,17 177.026793,17 C174.98438,17 173.087056,16.4084814 171.491072,15.3816945 C171.781251,15.4151767 172.060269,15.4263374 172.361609,15.4263374 C174.046879,15.4263374 175.59822,14.8571403 176.837061,13.886157 C175.252237,13.8526748 173.924111,12.8147272 173.466521,11.386154 C173.689735,11.4196362 173.91295,11.4419577 174.147325,11.4419577 C174.470986,11.4419577 174.794647,11.3973147 175.095987,11.3191897 C173.444199,10.9843678 172.205359,9.53347324 172.205359,7.78123901 L172.205359,7.7365961 C172.68527,8.00445356 173.243306,8.17186448 173.834825,8.19418593 C172.863842,7.54686373 172.22768,6.4419517 172.22768,5.19195021 C172.22768,4.52230655 172.406252,3.90846654 172.718752,3.37275161 C174.493308,5.56025422 177.160722,6.98882735 180.151797,7.14507754 C180.095993,6.87722008 180.062511,6.59820189 180.062511,6.3191837 C180.062511,4.33257418 181.669656,2.71426868 183.667426,2.71426868 C184.705373,2.71426868 185.642875,3.14953706 186.301358,3.8526629 C187.116091,3.69641271 187.897342,3.39507307 188.589307,2.98212615 C188.321449,3.81918072 187.752252,4.52230655 187.004483,4.96873566 C187.729931,4.89061056 188.433056,4.68971747 189.080379,4.41069928 Z" id="twitter---FontAwesome"></path>
            </g>
        </g>
    </g>
</svg>